<?xml version="1.0" encoding="utf-8"?>
<!-- Generator: Adobe Illustrator 21.0.0, SVG Export Plug-In . SVG Version: 6.00 Build 0)  -->
<svg version="1.1" id="Layer_1" xmlns="http://www.w3.org/2000/svg" xmlns:xlink="http://www.w3.org/1999/xlink" x="0px" y="0px"
	 width="32px" height="32px" viewBox="0 0 32 32" style="enable-background:new 0 0 32 32;" xml:space="preserve">
<style type="text/css">
	.st0{fill:#BBBBBB;}
</style>
<g id="pin_1_">
	<path class="st0" d="M26.5,13.8C26.5,8,21.8,3.3,16,3.3S5.5,8,5.5,13.8c0,1,0.2,2,0.4,3C7.4,22.8,16,29.6,16,29.6
		s9.7-7.6,10.3-13.9l0,0C26.4,15,26.5,14.4,26.5,13.8z M16.1,16.1c-2.4,0-4.3-1.9-4.3-4.3s1.9-4.3,4.3-4.3s4.3,1.9,4.3,4.3
		S18.5,16.1,16.1,16.1z"/>
</g>
</svg>
