<?xml version="1.0" encoding="utf-8"?>
<!-- Generator: Adobe Illustrator 21.0.0, SVG Export Plug-In . SVG Version: 6.00 Build 0)  -->
<svg version="1.1" id="Layer_1" xmlns="http://www.w3.org/2000/svg" xmlns:xlink="http://www.w3.org/1999/xlink" x="0px" y="0px"
	 width="48px" height="48px" viewBox="0 0 48 48" style="enable-background:new 0 0 48 48;" xml:space="preserve">
<style type="text/css">
	.st0{fill:none;}
	.st1{fill:#3AD671;}
	.st2{fill:none;stroke:#FFFFFF;stroke-width:2;stroke-linecap:round;stroke-linejoin:round;}
</style>
<path class="st0" d="M0,0h48v48H0V0z"/>
<path class="st1" d="M46,24l-4.9-5.6l0.7-7.4l-7.2-1.6L30.8,3L24,6l-6.8-2.9l-3.8,6.4l-7.2,1.6l0.7,7.4L2,24l4.9,5.6L6.2,37l7.2,1.6
	l3.8,6.4l6.8-3l6.8,2.9l3.8-6.4l7.2-1.6l-0.7-7.4L46,24z"/>
<path class="st2" d="M29,32.8v-2c0-2.2-1.8-4-4-4h-7c-2.2,0-4,1.8-4,4v2"/>
<circle class="st2" cx="21.5" cy="18.8" r="4"/>
<line class="st2" x1="33" y1="19.8" x2="33" y2="25.8"/>
<line class="st2" x1="36" y1="22.8" x2="30" y2="22.8"/>
</svg>
