<?xml version="1.0" encoding="utf-8"?>
<!-- Generator: Adobe Illustrator 21.0.0, SVG Export Plug-In . SVG Version: 6.00 Build 0)  -->
<svg version="1.1" id="Layer_1" xmlns="http://www.w3.org/2000/svg" xmlns:xlink="http://www.w3.org/1999/xlink" x="0px" y="0px"
	 width="244.5px" height="222px" viewBox="0 0 244.5 222" style="enable-background:new 0 0 244.5 222;" xml:space="preserve">
<style type="text/css">
	.st0{clip-path:url(#SVGID_1_);fill:#3AD671;}
	.st1{fill:#FFFFFF;}
	.st2{opacity:0.53;fill:#FFFFFF;}
	.st3{fill:#E0E1E0;}
	.st4{opacity:0.53;fill:#E0E1E0;}
	.st5{fill:#2980B9;}
</style>
<g>
	<defs>
		<rect id="SVGID_3_" x="20.1" y="18.7" width="204.5" height="65.5"/>
	</defs>
	<clipPath id="SVGID_1_">
		<use xlink:href="#SVGID_3_"  style="overflow:visible;"/>
	</clipPath>
	<path class="st0" d="M204.6,213.4h-172c-4.8,0-8.8-3.9-8.8-8.8v-172c0-4.8,3.9-8.8,8.8-8.8h172c4.8,0,8.8,3.9,8.8,8.8v172
		C213.4,209.5,209.5,213.4,204.6,213.4z"/>
</g>
<path class="st1" d="M54.4,73.4L54.4,73.4c-10.7,0-19.5-8.8-19.5-19.5v0c0-10.7,8.8-19.5,19.5-19.5h0c10.7,0,19.5,8.8,19.5,19.5v0
	C73.9,64.6,65.1,73.4,54.4,73.4z"/>
<path class="st1" d="M188.7,44.9H88.9c-2.5,0-4.5-2-4.5-4.5v0c0-2.5,2-4.5,4.5-4.5h99.8c2.5,0,4.5,2,4.5,4.5v0
	C193.2,42.9,191.2,44.9,188.7,44.9z"/>
<path class="st2" d="M165.9,61.2l-78.2,0c-1.8,0-3.3-1.5-3.3-3.3v0c0-1.8,1.5-3.3,3.3-3.3h78.2c1.8,0,3.3,1.5,3.3,3.3v0
	C169.2,59.7,167.8,61.2,165.9,61.2z"/>
<path class="st2" d="M165.9,72.3H87.7c-1.8,0-3.3-1.5-3.3-3.3v0c0-1.8,1.5-3.3,3.3-3.3h78.2c1.8,0,3.3,1.5,3.3,3.3v0
	C169.2,70.8,167.7,72.3,165.9,72.3z"/>
<path class="st3" d="M54.4,134.7L54.4,134.7c-10.7,0-19.5-8.8-19.5-19.5v0c0-10.7,8.8-19.5,19.5-19.5h0c10.7,0,19.5,8.8,19.5,19.5v0
	C73.9,125.9,65.1,134.7,54.4,134.7z"/>
<path class="st3" d="M188.7,106.2H88.9c-2.5,0-4.5-2-4.5-4.5v0c0-2.5,2-4.5,4.5-4.5h99.8c2.5,0,4.5,2,4.5,4.5v0
	C193.2,104.1,191.2,106.2,188.7,106.2z"/>
<path class="st4" d="M165.9,122.4H87.7c-1.8,0-3.3-1.5-3.3-3.3v0c0-1.8,1.5-3.3,3.3-3.3h78.2c1.8,0,3.3,1.5,3.3,3.3v0
	C169.3,120.9,167.8,122.4,165.9,122.4z"/>
<path class="st4" d="M165.9,133.5H87.7c-1.8,0-3.3-1.5-3.3-3.3l0,0c0-1.8,1.5-3.3,3.3-3.3h78.2c1.8,0,3.3,1.5,3.3,3.3l0,0
	C169.3,132.1,167.8,133.5,165.9,133.5z"/>
<path class="st3" d="M54.4,189.7L54.4,189.7c-10.7,0-19.5-8.8-19.5-19.5v0c0-10.7,8.8-19.5,19.5-19.5h0c10.7,0,19.5,8.8,19.5,19.5v0
	C73.9,180.9,65.1,189.7,54.4,189.7z"/>
<path class="st3" d="M188.7,161.1H88.9c-2.5,0-4.5-2-4.5-4.5l0,0c0-2.5,2-4.5,4.5-4.5h99.8c2.5,0,4.5,2,4.5,4.5l0,0
	C193.2,159.1,191.2,161.1,188.7,161.1z"/>
<path class="st4" d="M165.9,177.6H87.7c-1.8,0-3.3-1.5-3.3-3.3l0,0c0-1.8,1.5-3.3,3.3-3.3h78.2c1.8,0,3.3,1.5,3.3,3.3l0,0
	C169.3,176.1,167.8,177.6,165.9,177.6z"/>
<path class="st4" d="M165.9,188.7H87.7c-1.8,0-3.3-1.5-3.3-3.3v0c0-1.8,1.5-3.3,3.3-3.3h78.2c1.8,0,3.3,1.5,3.3,3.3v0
	C169.3,187.3,167.8,188.7,165.9,188.7z"/>
<g>
	<g>
		<g>
			<path class="st5" d="M226.3,52.4c-0.6,0-1.1-0.1-1.6-0.4l-11.3-6.4c-2.2,1.2-7.4,4.2-11.2,6.4c-0.5,0.3-1.1,0.4-1.7,0.4
				c-0.7,0-1.4-0.2-1.9-0.6c-1-0.8-1.5-2.1-1.3-3.3c0,0,2.6-12.6,2.6-12.7c-1.8-1.7-6.3-5.8-9.6-8.7c-1-0.9-1.3-2.2-0.9-3.5
				c0.4-1.2,1.5-2.1,2.8-2.3l12.9-1.4L210.4,8c0.5-1.2,1.7-2,3-2c1.3,0,2.5,0.8,3,1.9l5.3,11.8c2.5,0.3,8.5,0.9,12.9,1.4
				c1.3,0.2,2.4,1,2.8,2.3c0.4,1.2,0,2.6-0.9,3.5l-9.6,8.7l2.6,12.7c0.3,1.3-0.3,2.6-1.3,3.4C227.7,52.2,227,52.4,226.3,52.4z"/>
			<path class="st1" d="M213.4,8.1c0.5,0,1,0.3,1.2,0.8c2.3,5.1,5.8,12.8,5.8,12.8s8.4,0.9,14,1.6c0.5,0.1,1,0.4,1.1,0.9
				c0.2,0.5,0,1-0.4,1.4c-4.2,3.8-10.4,9.5-10.4,9.5s1.7,8.3,2.8,13.8c0.1,0.5-0.1,1-0.5,1.3c-0.2,0.2-0.5,0.2-0.8,0.2
				c-0.2,0-0.5-0.1-0.7-0.2c-4.9-2.8-12.2-7-12.2-7s-7.3,4.2-12.2,7c-0.2,0.1-0.4,0.2-0.7,0.2c-0.3,0-0.5-0.1-0.8-0.2
				c-0.4-0.3-0.6-0.8-0.5-1.3c1.1-5.5,2.8-13.8,2.9-13.8c0,0-6.2-5.7-10.4-9.5c-0.4-0.3-0.5-0.9-0.4-1.4s0.6-0.8,1.1-0.9
				c5.6-0.6,14-1.6,14-1.6s3.5-7.7,5.8-12.8C212.4,8.4,212.9,8.1,213.4,8.1 M213.4,4.1c-2.1,0-4,1.2-4.8,3.1
				c-1.6,3.5-3.7,8.1-4.9,10.7L192,19.3c-2.1,0.3-3.8,1.7-4.5,3.6c-0.6,2-0.1,4.2,1.5,5.6c2.8,2.6,6.6,6,8.7,7.9l-0.5,2.6
				c-0.6,2.8-1.3,6.2-1.9,9l0,0l0,0c-0.4,2,0.4,4.1,2.1,5.3c0.9,0.7,2,1,3.1,1c0.9,0,1.8-0.2,2.6-0.7c3.3-1.9,7.7-4.4,10.3-5.8
				c2.5,1.4,6.9,4,10.2,5.8l0,0l0,0c0.8,0.4,1.7,0.7,2.6,0.7c1.1,0,2.2-0.4,3.1-1c1.7-1.2,2.5-3.3,2.1-5.3
				c-0.8-3.7-1.8-8.7-2.4-11.6c2.1-2,5.9-5.4,8.7-7.9l0,0l0,0c1.5-1.4,2.1-3.6,1.4-5.5c-0.6-2-2.4-3.4-4.5-3.6
				c-3.8-0.4-8.9-1-11.7-1.3l-4.9-10.7l0,0l0,0C217.3,5.3,215.4,4.1,213.4,4.1L213.4,4.1z"/>
		</g>
	</g>
</g>
</svg>
