<?xml version="1.0" encoding="utf-8"?>
<!-- Generator: Adobe Illustrator 21.0.0, SVG Export Plug-In . SVG Version: 6.00 Build 0)  -->
<svg version="1.1" id="Layer_1" xmlns="http://www.w3.org/2000/svg" xmlns:xlink="http://www.w3.org/1999/xlink" x="0px" y="0px"
	 width="24px" height="24px" viewBox="0 0 24 24" style="enable-background:new 0 0 24 24;" xml:space="preserve">
<style type="text/css">
	.st0{fill:#E0E1E0;stroke:#E0E1E0;stroke-width:2;stroke-linecap:round;stroke-linejoin:round;}
	.st1{display:none;}
	.st2{display:inline;fill:#23D160;}
</style>
<polygon class="st0" points="12,2 15.1,8.3 22,9.3 17,14.1 18.2,21 12,17.8 5.8,21 7,14.1 2,9.3 8.9,8.3 "/>
<g class="st1">
	<polygon class="st2" points="12,2 12,17.8 5.8,21 7,14.1 2,9.3 8.9,8.3 	"/>
	<path class="st2" d="M11.1,1.6L8.3,7.3L1.9,8.3C1.5,8.3,1.2,8.6,1,9c-0.1,0.4,0,0.8,0.3,1l4.6,4.5l-1.1,6.4c-0.1,0.4,0.1,0.8,0.4,1
		C5.5,22,6,22.1,6.3,21.9l5.7-3v-2.1c-0.2,0-0.3,0-0.5,0.1l-4.4,2.3L8,14.3c0-0.3-0.1-0.7-0.3-0.9L4.2,10L9,9.3
		c0.3,0,0.6-0.3,0.8-0.5L12,4.3V1C11.6,1,11.3,1.2,11.1,1.6z"/>
</g>
</svg>
