<?xml version="1.0" encoding="utf-8"?>
<!-- Generator: Adobe Illustrator 21.0.0, SVG Export Plug-In . SVG Version: 6.00 Build 0)  -->
<svg version="1.1" id="Layer_1" xmlns="http://www.w3.org/2000/svg" xmlns:xlink="http://www.w3.org/1999/xlink" x="0px" y="0px"
	 width="64.8px" height="64.8px" viewBox="0 0 64.8 64.8" style="enable-background:new 0 0 64.8 64.8;" xml:space="preserve">
<style type="text/css">
	.st0{fill:#2880B9;}
	.st1{fill:#3AD671;}
</style>
<path class="st0" d="M59.6,21.3c-3.3-1.7-6.6,2-4.8,5.2l-7.2,13C45,39,42.8,41.4,43.5,44l-12.6,8.5c-0.6-0.5-1.4-0.8-2.2-0.8
	c-1.4,0-2.5,0.8-3.2,1.9l-14-2.5c-0.8-5.1-8.3-3.4-7.2,1.5l1.3,2.1c1.8,1.4,4.3,0.8,5.4-1.1l14,2.5c0.3,1.8,1.8,3.1,3.6,3.1
	c2.3,0,4.1-2.2,3.5-4.6l12.6-8.5c3.5,2.6,7.8-2.1,4.9-5.4l7-12.6c3,1.1,5.8-1.9,4.6-4.8L59.6,21.3z"/>
<path class="st1" d="M26.5,5.4c1.3,0,2.3,1,2.3,2.3v0.6c2.4,0.4,4.5,1.1,6.5,2.2c0.8,0.5,1.6,1.3,1.6,2.7c0,1.7-1.3,3-3,3
	c-0.5,0-1.1-0.1-1.6-0.4c-1.2-0.7-2.5-1.2-3.7-1.5v6.8c6.8,1.8,9.7,4.6,9.7,9.6c0,5-3.8,8.2-9.4,8.9V42c0,1.3-1,2.3-2.3,2.3
	c-1.3,0-2.3-1-2.3-2.3v-2.4c-3.2-0.4-6.1-1.5-8.8-3.1c-0.9-0.6-1.5-1.5-1.5-2.7c0-1.7,1.3-3,3.1-3c0.6,0,1.2,0.2,1.7,0.6
	c1.9,1.2,3.7,2.1,5.7,2.5v-7.1c-6.4-1.7-9.6-4.2-9.6-9.5c0-4.9,3.7-8.2,9.4-8.8V7.7C24.2,6.4,25.3,5.4,26.5,5.4z M24.5,19.9v-6.1
	c-2.1,0.3-3.1,1.4-3.1,2.8C21.4,18.1,22,19,24.5,19.9z M28.6,27.8V34c2.1-0.3,3.2-1.3,3.2-2.9C31.8,29.6,31,28.6,28.6,27.8z"/>
</svg>
